<svg id="Layer_1" data-name="Layer 1" xmlns="http://www.w3.org/2000/svg" viewBox="0 0 653.9 119.8"><defs><style>.cls-1{fill:#203875;}</style></defs><title>protest-logo-hor</title><path class="cls-1" d="M154,110H130.45V15.59h37.48c10,0,17.95,2.92,23.13,8.35s8,13.37,8,23.39-2.79,18-8,23.39c-5.58,5.43-13.16,8.35-23.13,8.35H154Zm0-51.37h8c8.78,0,12.76-3.76,12.76-11.7S170.33,35.22,162,35.22h-8Z"/><path class="cls-1" d="M283.18,110H254.07L231.74,73.64V110H208.21V15.59H244.5a30.93,30.93,0,0,1,13.16,2.51,30.46,30.46,0,0,1,9.17,6.26,26.88,26.88,0,0,1,5.58,9.19,33.12,33.12,0,0,1,2,11.27q0,10.65-4.78,17.55c-3.19,4.59-8.38,7.51-14.76,9.18ZM231.34,57.77h4.38c4.79,0,8-.83,10.77-2.92q3.58-3.14,3.59-8.77t-3.59-8.77c-2.39-2.09-6-2.93-10.77-2.93h-4.38Z"/><path class="cls-1" d="M283.58,62.78a53.54,53.54,0,0,1,3.58-19.63,47.17,47.17,0,0,1,10.37-15.87,45.24,45.24,0,0,1,15.55-10.44,52.34,52.34,0,0,1,20.34-3.76,51.7,51.7,0,0,1,19.94,3.76,54,54,0,0,1,15.95,10.44,43.23,43.23,0,0,1,10.37,15.87,53.55,53.55,0,0,1,3.59,19.63,53.51,53.51,0,0,1-3.59,19.63,46.82,46.82,0,0,1-10.37,15.87,43.07,43.07,0,0,1-15.95,10.44,51.51,51.51,0,0,1-19.94,3.76,55,55,0,0,1-20.34-3.76,51.68,51.68,0,0,1-15.55-10.44,47,47,0,0,1-10.37-15.87A55.11,55.11,0,0,1,283.58,62.78Zm24.32,0a30.41,30.41,0,0,0,2,10.44,23.3,23.3,0,0,0,5.59,8.36,25,25,0,0,0,8,5.43A26.39,26.39,0,0,0,333,89.09,23.2,23.2,0,0,0,342.59,87a18.63,18.63,0,0,0,8-5.43,23.4,23.4,0,0,0,5.58-8.36,30.17,30.17,0,0,0,2-10.44,30.17,30.17,0,0,0-2-10.44A23.36,23.36,0,0,0,350.57,44a24.84,24.84,0,0,0-8-5.43A26.41,26.41,0,0,0,333,36.47a23.2,23.2,0,0,0-9.57,2.09,21.06,21.06,0,0,0-8,5.43,29.93,29.93,0,0,0-5.59,8.35A28.63,28.63,0,0,0,307.9,62.78Z"/><path class="cls-1" d="M427.93,36.05v73.51H404.4V36.05H385.26V15.17h61.81V36.05Z"/><path class="cls-1" d="M505.29,36.05H477.37V51.92h26.32V72.81H477.37V89.09h27.92V110H453.85V15.59h51.44Z"/><path class="cls-1" d="M568.29,39.39a40.24,40.24,0,0,0-7.57-5,25,25,0,0,0-7.58-1.67,13.75,13.75,0,0,0-7.58,2.09,6.89,6.89,0,0,0-2.79,5.85,5.47,5.47,0,0,0,1.6,4.17c.79,1.26,2.39,2.09,3.59,2.93a19.71,19.71,0,0,0,5.18,2.09,33.75,33.75,0,0,1,6,2.08c7.58,2.51,13.16,6.27,16.75,10.86s5.18,10.44,5.18,17.54a36,36,0,0,1-2.39,13.37,33.59,33.59,0,0,1-6.78,10,33.62,33.62,0,0,1-11.16,6.68A40.75,40.75,0,0,1,546,112.9a53.2,53.2,0,0,1-31.9-10.44l10-19.63a35.13,35.13,0,0,0,10.37,7.1,23.36,23.36,0,0,0,10,2.51c4,0,6.78-.84,8.37-2.93a7.67,7.67,0,0,0,2.79-6.26,12.59,12.59,0,0,0-.8-3.76,5.48,5.48,0,0,0-2.39-2.92A20.76,20.76,0,0,0,548,74.06c-2-.84-4-1.67-6.38-2.51a54.14,54.14,0,0,1-8.78-3.34,32.14,32.14,0,0,1-8-5,25.81,25.81,0,0,1-5.59-7.52,32.26,32.26,0,0,1-2-11.69,31.84,31.84,0,0,1,2.39-12.53A26.66,26.66,0,0,1,526,21.85a22.89,22.89,0,0,1,10-6.26c4-1.67,8.38-2.09,13.16-2.09a56.6,56.6,0,0,1,14,2.09,58.41,58.41,0,0,1,14,5.85Z"/><path class="cls-1" d="M627.31,36.05v73.51H603.78V36.05H584.64V15.17h61.81V36.05Z"/><path class="cls-1" d="M92.45,49.42A41,41,0,0,0,54.21,10.55V49.42Z"/><path class="cls-1" d="M48.72,10.55A41,41,0,0,0,10.6,49.36H48.72Z"/><path class="cls-1" d="M54.21,92.34A41,41,0,0,0,92.39,54.91H54.21Z"/><rect class="cls-1" x="10.66" y="54.91" width="37.99" height="55.79"/></svg>